<svg width="157" height="169" viewBox="0 0 157 169" fill="none" xmlns="http://www.w3.org/2000/svg">
<rect x="56.3086" y="58.4639" width="75.3685" height="99.9176" rx="10.5" fill="white" stroke="#E72D38" stroke-width="3"/>
<line x1="69.1953" y1="67.127" x2="118.791" y2="67.127" stroke="#FFECEC" stroke-width="8" stroke-linecap="round"/>
<line x1="69.1953" y1="74.6807" x2="118.791" y2="74.6807" stroke="#FFECEC" stroke-width="8" stroke-linecap="round"/>
<line x1="69.1953" y1="133.692" x2="118.791" y2="133.692" stroke="#FFECEC" stroke-width="8" stroke-linecap="round"/>
<line x1="69.1953" y1="82.2344" x2="118.791" y2="82.2344" stroke="#FFECEC" stroke-width="8" stroke-linecap="round"/>
<line x1="69.1953" y1="141.246" x2="118.791" y2="141.246" stroke="#FFECEC" stroke-width="8" stroke-linecap="round"/>
<line x1="69.1953" y1="89.3154" x2="105.101" y2="89.3154" stroke="#FFECEC" stroke-width="8" stroke-linecap="round"/>
<line x1="69.1953" y1="148.328" x2="105.101" y2="148.328" stroke="#FFECEC" stroke-width="8" stroke-linecap="round"/>
<line x1="69.1953" y1="111.504" x2="105.101" y2="111.504" stroke="#FFECEC" stroke-width="8" stroke-linecap="round"/>
<line x1="69.1953" y1="96.3975" x2="83.384" y2="96.3975" stroke="#FFECEC" stroke-width="8" stroke-linecap="round"/>
<line x1="69.1953" y1="118.586" x2="83.384" y2="118.586" stroke="#FFECEC" stroke-width="8" stroke-linecap="round"/>
<line x1="69.1953" y1="103.95" x2="83.384" y2="103.95" stroke="#FFECEC" stroke-width="8" stroke-linecap="round"/>
<line x1="69.1953" y1="126.14" x2="83.384" y2="126.14" stroke="#FFECEC" stroke-width="8" stroke-linecap="round"/>
<line x1="96.5781" y1="96.3975" x2="118.792" y2="96.3975" stroke="#FFECEC" stroke-width="8" stroke-linecap="round"/>
<line x1="96.5781" y1="118.586" x2="118.792" y2="118.586" stroke="#FFECEC" stroke-width="8" stroke-linecap="round"/>
<rect x="15.6836" y="23.3721" width="97.7728" height="128.4" rx="12" fill="#FFECEC"/>
<rect x="22.7031" y="18.96" width="94.7728" height="125.4" rx="10.5" fill="white" stroke="#E72D38" stroke-width="3"/>
<line x1="38.1602" y1="31.1299" x2="102.017" y2="31.1299" stroke="#FFECEC" stroke-width="8" stroke-linecap="round"/>
<line x1="38.1602" y1="40.5537" x2="102.017" y2="40.5537" stroke="#FFECEC" stroke-width="8" stroke-linecap="round"/>
<line x1="38.1602" y1="114.178" x2="102.017" y2="114.178" stroke="#FFECEC" stroke-width="8" stroke-linecap="round"/>
<line x1="38.1602" y1="49.9775" x2="102.017" y2="49.9775" stroke="#FFECEC" stroke-width="8" stroke-linecap="round"/>
<line x1="38.1602" y1="123.602" x2="102.017" y2="123.602" stroke="#FFECEC" stroke-width="8" stroke-linecap="round"/>
<line x1="38.1602" y1="58.8125" x2="84.9365" y2="58.8125" stroke="#FFECEC" stroke-width="8" stroke-linecap="round"/>
<line x1="38.1602" y1="132.437" x2="84.9365" y2="132.437" stroke="#FFECEC" stroke-width="8" stroke-linecap="round"/>
<line x1="38.1602" y1="86.4951" x2="84.9365" y2="86.4951" stroke="#FFECEC" stroke-width="8" stroke-linecap="round"/>
<line x1="38.1602" y1="67.6475" x2="57.8428" y2="67.6475" stroke="#FFECEC" stroke-width="8" stroke-linecap="round"/>
<line x1="38.1602" y1="95.3301" x2="57.8428" y2="95.3301" stroke="#FFECEC" stroke-width="8" stroke-linecap="round"/>
<line x1="38.1602" y1="77.0713" x2="57.8428" y2="77.0713" stroke="#FFECEC" stroke-width="8" stroke-linecap="round"/>
<line x1="38.1602" y1="104.754" x2="57.8428" y2="104.754" stroke="#FFECEC" stroke-width="8" stroke-linecap="round"/>
<line x1="72.3242" y1="67.6475" x2="102.02" y2="67.6475" stroke="#FFECEC" stroke-width="8" stroke-linecap="round"/>
<line x1="72.3242" y1="95.3301" x2="102.02" y2="95.3301" stroke="#FFECEC" stroke-width="8" stroke-linecap="round"/>
<path d="M82.375 125.375C91.7638 125.375 99.375 117.764 99.375 108.375C99.375 98.9862 91.7638 91.375 82.375 91.375C72.9862 91.375 65.375 98.9862 65.375 108.375C65.375 117.764 72.9862 125.375 82.375 125.375Z" stroke="#E72D38" stroke-width="5" stroke-linecap="round" stroke-linejoin="round"/>
<path d="M103.627 129.625L94.3828 120.381" stroke="#E72D38" stroke-width="5" stroke-linecap="round" stroke-linejoin="round"/>
<line x1="1" y1="-1" x2="10.9234" y2="-1" transform="matrix(-0.708479 0.705732 0.708479 0.705732 156.328 58.4727)" stroke="#E72D38" stroke-width="2" stroke-linecap="round"/>
<line x1="1" y1="-1" x2="10.9234" y2="-1" transform="matrix(0.708479 0.705732 -0.708479 0.705732 147.121 58.4727)" stroke="#E72D38" stroke-width="2" stroke-linecap="round"/>
<line x1="1" y1="-1" x2="10.9234" y2="-1" transform="matrix(-0.708479 0.705732 0.708479 0.705732 9.95312 98.7998)" stroke="#E72D38" stroke-width="2" stroke-linecap="round"/>
<line x1="1" y1="-1" x2="10.9234" y2="-1" transform="matrix(0.708479 0.705732 -0.708479 0.705732 0.746094 98.7998)" stroke="#E72D38" stroke-width="2" stroke-linecap="round"/>
<circle cx="39.5" cy="161.5" r="3.5" stroke="#E72D38" stroke-width="2"/>
<circle cx="106.5" cy="4.5" r="3.5" stroke="#E72D38" stroke-width="2"/>
<line x1="22" y1="4" x2="32" y2="4" stroke="#313030" stroke-width="2" stroke-linecap="round"/>
<line x1="119" y1="168" x2="129" y2="168" stroke="#313030" stroke-width="2" stroke-linecap="round"/>
</svg>
